<svg width="265" height="177" viewBox="0 0 265 177" fill="none" xmlns="http://www.w3.org/2000/svg">
<path d="M165.2 14.2418C166.875 8.3783 163.481 2.26685 157.616 0.591605C151.753 -1.08364 145.642 2.31157 143.967 8.17502L99.7997 162.758C98.1245 168.622 101.52 174.733 107.383 176.408C113.247 178.084 119.358 174.689 121.033 168.825L165.2 14.2418Z" fill="white"/>
<path d="M64.0317 37.695C67.698 42.5681 66.7198 49.4904 61.8469 53.1568L26.5987 79.6767C20.7278 84.0944 20.7277 92.9057 26.5987 97.3235L61.8469 123.843C66.7198 127.51 67.698 134.432 64.0317 139.305C60.3653 144.179 53.443 145.156 48.5699 141.49L13.3219 114.97C-4.29099 101.718 -4.29105 75.2821 13.3217 62.0305L48.5699 35.5103C53.443 31.8441 60.3653 32.8221 64.0317 37.695Z" fill="white"/>
<path d="M200.968 139.305C197.302 134.432 198.281 127.51 203.153 123.843L238.402 97.3235C244.273 92.9057 244.273 84.0944 238.402 79.6767L203.153 53.1568C198.281 49.4904 197.302 42.5681 200.968 37.695C204.635 32.8221 211.557 31.8441 216.43 35.5103L251.678 62.0305C269.291 75.2821 269.291 101.718 251.678 114.97L216.43 141.49C211.557 145.156 204.635 144.179 200.968 139.305Z" fill="white"/>
</svg>
