<svg width="33" height="46" viewBox="0 0 33 46" fill="none" xmlns="http://www.w3.org/2000/svg">
<path fill-rule="evenodd" clip-rule="evenodd" d="M10.2193 0C7.02275 0 4.43807 1.04102 2.64648 2.77049C0.873779 4.48142 0 6.75289 0 8.99996C0 11.247 0.873779 13.5185 2.64648 15.2294C2.76909 15.3476 2.89536 15.4628 3.02528 15.5751C3.19698 15.7226 3.3751 15.8642 3.5594 15.9999C3.39461 16.121 3.23487 16.247 3.08016 16.3778C2.93085 16.5048 2.78621 16.6357 2.64648 16.7704C0.873779 18.4814 0 20.7529 0 22.9999C0 25.2469 0.873779 27.5185 2.64648 29.2293C2.91423 29.4881 3.19962 29.7303 3.50212 29.9569C2.27399 30.9051 1.31033 32.1415 0.706468 33.5554C0.00402144 35.2 -0.179767 37.0096 0.178386 38.7556C0.536518 40.5018 1.42036 42.1052 2.71835 43.364C4.01649 44.6228 5.67025 45.4792 7.47052 45.827C9.27094 46.1746 11.137 45.9958 12.8331 45.3142C14.5291 44.6336 15.9784 43.4802 16.9983 41.9998C18.0182 40.5204 18.5625 38.78 18.5625 36.9998V30.4843C20.0372 31.4413 21.8109 31.9999 23.7188 31.9999C28.8447 31.9999 33 27.9707 33 22.9999C33 20.1483 31.6324 17.6064 29.4981 15.957C29.8004 15.7304 30.0859 15.4882 30.3536 15.2294C32.1263 13.5185 33 11.247 33 8.99996C33 6.75289 32.1263 4.48142 30.3536 2.77049C28.5619 1.04102 25.9772 0 22.7807 0H10.2193ZM14.4375 17.9999H10.2193C7.97796 17.9999 6.48434 18.7089 5.55693 19.6043C4.61066 20.5185 4.125 21.7469 4.125 22.9999C4.125 24.2529 4.61066 25.4813 5.55693 26.3955C6.48434 27.2909 7.97808 27.9999 10.2193 27.9999H14.4375V17.9999ZM6.43411 32.868C7.27679 32.3221 8.26761 31.9999 9.28125 31.9999C9.28125 31.9999 10.0684 31.9999 10.2193 31.9999H14.4375V36.9998C14.4375 37.9822 14.1056 38.9432 13.5424 39.7606C12.9793 40.578 12.1789 41.2146 11.2424 41.5906C10.306 41.9676 9.27558 42.0652 8.28147 41.8738C7.28735 41.6824 6.3742 41.2088 5.6574 40.5134C4.94074 39.8192 4.45267 38.9334 4.25492 37.9696C4.05714 37.0056 4.15862 36.0056 4.5466 35.0984C4.93445 34.1902 5.59131 33.4138 6.43411 32.868ZM18.5625 13.9999H22.7807C25.0218 13.9999 26.5157 13.291 27.443 12.3954C28.3893 11.4814 28.875 10.2529 28.875 8.99996C28.875 7.74704 28.3893 6.51853 27.443 5.60447C26.5157 4.70896 25.022 3.99998 22.7807 3.99998H18.5625V13.9999ZM14.4375 13.9999H10.2193C7.97808 13.9999 6.48434 13.291 5.55693 12.3954C4.61066 11.4814 4.125 10.2529 4.125 8.99996C4.125 7.74704 4.61066 6.51853 5.55693 5.60447C6.48434 4.70896 7.97796 3.99998 10.2193 3.99998H14.4375V13.9999ZM23.7188 27.9697C20.8884 27.9697 18.5941 25.7441 18.5941 22.9999C18.5941 20.2557 20.8884 18.0302 23.7188 18.0302C26.5491 18.0302 28.8434 20.2557 28.8434 22.9999C28.8434 25.7441 26.5491 27.9697 23.7188 27.9697Z" fill="#8D99AE"/>
</svg>
