<svg width="76" height="76" viewBox="0 0 76 76" fill="none" xmlns="http://www.w3.org/2000/svg">
<path fill-rule="evenodd" clip-rule="evenodd" d="M65.5405 56.5938C60.9924 55.081 56.1023 53.9505 50.9556 53.219C51.6563 49.1032 52.0291 44.7901 52.1479 40.375H71.1598C70.7346 46.3624 68.723 51.9032 65.5405 56.5938ZM46.1558 70.2027C47.7375 66.3813 49.0319 62.2512 50.027 57.9002C54.2972 58.5319 58.3917 59.4653 62.2701 60.6908C57.9856 65.2579 52.4234 68.6185 46.1558 70.2027ZM40.3061 71.1336C39.5414 71.1882 38.779 71.25 38 71.25C37.221 71.25 36.461 71.1882 35.6939 71.1336C33.6728 66.9251 32.0364 62.2417 30.8251 57.2708C33.1859 57.0642 35.5775 56.943 38 56.943C40.4225 56.943 42.8141 57.0642 45.1773 57.2708C43.9636 62.2417 42.3272 66.9251 40.3061 71.1336ZM13.7299 60.6908C17.6083 59.4653 21.7028 58.5319 25.973 57.9002C26.9681 62.2512 28.2625 66.3813 29.8442 70.2027C23.5766 68.6185 18.0168 65.2579 13.7299 60.6908ZM10.4595 56.5938C7.27702 51.9032 5.26536 46.3624 4.84024 40.375H23.8521C23.9709 44.7901 24.3437 49.1032 25.0444 53.219C19.8977 53.9505 15.0076 55.081 10.4595 56.5938ZM10.4595 19.4062C15.0076 20.919 19.8977 22.0518 25.0444 22.781C24.3437 26.8968 23.9709 31.2099 23.8521 35.625H4.84024C5.26536 29.6376 7.27702 24.0968 10.4595 19.4062ZM29.8442 5.79733C28.2625 9.6187 26.9681 13.7488 25.973 18.0998C21.7028 17.4704 17.6083 16.5347 13.7299 15.3092C18.0168 10.7421 23.5766 7.38145 29.8442 5.79733ZM35.6939 4.8664C36.461 4.81415 37.221 4.75 38 4.75C38.779 4.75 39.5414 4.81415 40.3061 4.8664C42.3272 9.0749 43.9636 13.7607 45.1773 18.7292C42.8141 18.9358 40.4225 19.057 38 19.057C35.5775 19.057 33.1859 18.9358 30.8251 18.7292C32.0364 13.7607 33.6728 9.0749 35.6939 4.8664ZM47.3907 40.375C47.2625 44.5574 46.8825 48.6709 46.1676 52.6205C43.4934 52.3878 40.774 52.25 38 52.25C35.226 52.25 32.5066 52.3878 29.8347 52.6205C29.1175 48.6709 28.7375 44.5574 28.6116 40.375H47.3907ZM28.6116 35.625C28.7375 31.4426 29.1175 27.3291 29.8347 23.3795C32.5066 23.6122 35.226 23.75 38 23.75C40.774 23.75 43.4934 23.6122 46.1653 23.3795C46.8825 27.3291 47.2625 31.4426 47.3907 35.625H28.6116ZM62.2701 15.3092C58.3917 16.5347 54.2972 17.4704 50.027 18.0998C49.0319 13.7488 47.7375 9.6187 46.1558 5.79733C52.4234 7.38145 57.9856 10.7421 62.2701 15.3092ZM65.5405 19.4062C68.723 24.0968 70.7346 29.6376 71.1598 35.625H52.1479C52.0291 31.2099 51.6563 26.8968 50.9556 22.781C56.1023 22.0518 60.9924 20.919 65.5405 19.4062ZM38 0C17.0145 0 0 17.0121 0 38C0 58.9879 17.0145 76 38 76C58.9855 76 76 58.9879 76 38C76 17.0121 58.9855 0 38 0Z" fill="white"/>
</svg>
