<svg width="35" height="46" viewBox="0 0 35 46" fill="none" xmlns="http://www.w3.org/2000/svg">
<path d="M20.3438 0C22.7979 5.85441 11.5459 9.4417 10.5 14.3215C9.54297 18.8005 17.165 24.0535 17.1719 24.0535C16.0098 22.2011 15.1621 20.639 14 17.7498C12.0312 12.87 25.9971 8.46712 20.3438 0ZM27.7812 8.12843C27.7812 8.12843 17.9443 8.75742 17.4453 15.2615C17.2197 18.1576 20.043 19.6783 20.125 21.7864C20.1934 23.5075 18.4297 24.9382 18.4297 24.9382C18.4297 24.9382 21.5947 24.3576 22.5859 21.7311C23.6797 18.8143 20.4531 16.8236 20.7812 14.4874C21.0957 12.2549 27.7812 8.12843 27.7812 8.12843ZM30.1875 23.1135C29.1553 23.0651 27.9932 23.4522 26.9609 24.2194C28.998 23.7632 30.7344 25.0558 30.7344 26.5418C30.7344 29.8734 26.0312 33.0114 26.0312 33.0114C26.0312 33.0114 33.3047 32.1889 33.3047 26.7077C33.3047 24.4475 31.9033 23.1964 30.1875 23.1135ZM10.8828 23.1688C8.34668 23.2586 3.28125 23.6803 3.28125 25.6571C3.28125 28.408 15.0801 28.6223 23.5156 26.9289C23.5156 26.9289 25.8125 25.3115 26.4141 24.7171C20.8838 25.8783 8.25781 26.058 8.25781 25.0488C8.25781 24.1226 12.3047 23.1688 12.3047 23.1688C12.3047 23.1688 11.7305 23.1411 10.8828 23.1688ZM10.1172 28.256C8.72949 28.256 6.67188 29.3481 6.67188 30.4125C6.67188 32.5552 17.1172 34.2002 24.8281 31.076L22.1484 29.4172C16.9189 31.1452 7.25977 30.5715 10.1172 28.256ZM11.4297 33.0667C9.53613 33.0667 8.3125 34.2763 8.3125 35.1679C8.3125 37.9119 19.626 38.1815 24.1172 35.3891L21.2734 33.509C17.9238 34.9675 9.49512 35.1817 11.4297 33.0667ZM5.08594 35.555C1.99609 35.4928 0 36.9097 0 38.0986C0 44.423 31.6641 44.1189 31.6641 37.6562C31.6641 36.5849 30.4131 36.0734 29.9688 35.8315C32.5527 42.0107 4.10156 41.5269 4.10156 37.8774C4.10156 37.048 6.20703 36.2185 8.14844 36.6056L6.50781 35.6656C6.02246 35.5895 5.53027 35.5619 5.08594 35.555ZM35 39.8127C30.1875 44.5198 18.0059 46.2063 5.74219 43.2963C18.0059 48.4803 34.9385 45.598 35 39.8127Z" fill="#8D99AE"/>
</svg>
