<svg width="41" height="46" viewBox="0 0 41 46" fill="none" xmlns="http://www.w3.org/2000/svg">
<path d="M41 0L37.1556 41.5275L20.4997 46L3.84354 41.5275L0 0H41ZM33.2534 8.44396H20.4847H7.48986L8.11132 13.4588H20.4847H21.1798L20.4847 13.7473L8.56355 18.6989L8.95891 23.6008L20.4847 23.6381L26.6623 23.6576L26.2668 30.1936L20.4847 31.8171V31.812L20.4373 31.8251L14.8532 30.4193L14.5143 26.3621H14.4958H9.31626H9.29803L9.976 34.1944L20.4848 37.2937V37.2881L20.5038 37.2937L30.9563 34.2509L32.3122 18.6989H20.4848H20.4557L20.4848 18.6863L32.7454 13.4588L33.2534 8.44396Z" fill="#8D99AE"/>
</svg>
