<svg width="52" height="46" viewBox="0 0 52 46" fill="none" xmlns="http://www.w3.org/2000/svg">
<path d="M26.0121 18.4703C26.905 18.4703 27.7779 18.7313 28.5209 19.2204C29.2639 19.7095 29.8439 20.4048 30.1877 21.2188C30.5316 22.0328 30.624 22.9291 30.4533 23.7949C30.2826 24.6606 29.8564 25.4571 29.2284 26.0841C28.6004 26.7111 27.7987 27.1406 26.9242 27.3184C26.0496 27.4962 25.1414 27.4145 24.3138 27.0835C23.4862 26.7525 22.7762 26.187 22.2732 25.4583C21.7702 24.7295 21.4968 23.87 21.4872 22.988C21.484 22.3979 21.5985 21.8129 21.8242 21.2665C22.0499 20.7201 22.3823 20.2229 22.8025 19.8034C23.2226 19.3839 23.7224 19.0502 24.2731 18.8215C24.8238 18.5928 25.4147 18.4734 26.0121 18.4703ZM14.8087 42.1108C16.3332 43.0192 19.6482 41.6328 23.5198 38.0472C22.2258 36.5946 21.0063 35.0788 19.866 33.5056C17.9143 33.2896 15.9757 32.9705 14.0586 32.5494C12.8246 37.6648 13.2843 41.1786 14.8087 42.1108ZM16.5268 28.3902L15.825 27.1712C15.5515 27.8426 15.3172 28.5289 15.1233 29.2269C15.7766 29.3703 16.5026 29.4898 17.2527 29.6093L16.5268 28.3902ZM32.3518 26.5736L34.3118 22.988L32.3518 19.4025C31.6259 18.1356 30.8516 17.0122 30.1498 15.8887C28.8432 15.817 27.4639 15.817 26.0121 15.817C24.5603 15.817 23.181 15.817 21.8744 15.817C21.1726 16.9405 20.3983 18.0639 19.6724 19.3308L17.7124 22.988L19.6724 26.5736C20.3983 27.8405 21.1726 28.9639 21.8744 30.0874C23.181 30.0874 24.5603 30.0874 26.0121 30.0874C27.4639 30.0874 28.8432 30.0874 30.1498 30.0874C30.8516 28.9639 31.6259 27.8405 32.3518 26.5736ZM26.0121 10.5104C25.5524 11.0363 25.0684 11.5861 24.5845 12.2315H27.4397C26.9558 11.5861 26.4718 11.0363 26.0121 10.5104ZM26.0121 35.4657C26.4718 34.9398 26.9558 34.39 27.4397 33.7446H24.5845C25.0684 34.39 25.5524 34.9398 26.0121 35.4657ZM37.1913 3.86527C35.691 2.95694 32.3518 4.34334 28.5044 7.92886C29.7984 9.38148 31.0179 10.8973 32.1582 12.4705C34.1081 12.6549 36.0467 12.9421 37.9656 13.331C39.1996 8.2157 38.7399 4.70189 37.1913 3.76966M35.4974 17.4902L36.1992 18.7093C36.4727 18.0379 36.707 17.3516 36.9009 16.6536C36.2476 16.5102 35.5216 16.3907 34.7715 16.2712L35.4974 17.4902ZM39.0061 0.757819C42.5631 2.76571 42.9502 8.04838 41.4258 14.2155C47.5719 16.0082 52 18.9962 52 23.012C52 27.0277 47.5719 30.0157 41.4258 31.8084C42.926 37.9755 42.5389 43.2582 39.0061 45.2661C35.4732 47.274 30.658 44.9792 26.0121 40.6049C21.3662 44.9792 16.551 47.274 12.994 45.2661C9.43695 43.2582 9.07399 38.095 10.5742 31.8084C4.42811 30.0157 0 27.0277 0 23.012C0 18.9962 4.42811 15.9843 10.5742 14.1916C9.07399 8.02447 9.46114 2.74181 12.994 0.733915C16.5268 -1.27398 21.3662 1.02076 26.0121 5.39509C30.658 1.02076 35.4732 -1.27398 39.0061 0.733915M38.3043 22.988C39.1447 24.7477 39.8878 26.5511 40.5305 28.3902C45.6119 26.8843 48.4672 24.733 48.4672 22.988C48.4672 21.2431 45.5393 19.0918 40.5305 17.5859C39.8878 19.425 39.1447 21.2284 38.3043 22.988ZM13.7199 22.988C12.8795 21.2284 12.1364 19.425 11.4937 17.5859C6.41229 19.0918 3.557 21.2431 3.557 22.988C3.557 24.733 6.48488 26.8843 11.4937 28.3902C12.1364 26.5511 12.8795 24.7477 13.7199 22.988ZM35.4974 28.3902L34.7715 29.6093C35.5216 29.6093 36.2476 29.3703 36.9009 29.2269C36.707 28.5289 36.4727 27.8426 36.1992 27.1712L35.4974 28.3902ZM28.4318 38.0472C32.2792 41.6328 35.691 43.0192 37.1187 42.1108C38.5463 41.2025 39.127 37.7604 37.893 32.5494C35.9741 32.9384 34.0356 33.2256 32.0856 33.41C30.9479 35.0158 29.7284 36.5636 28.4318 38.0472ZM16.5268 17.5859L17.2527 16.3668C16.5026 16.3668 15.7766 16.6058 15.1233 16.7492C15.3172 17.4472 15.5515 18.1335 15.825 18.8049L16.5268 17.5859ZM23.5924 7.92886C19.6724 4.34334 16.3332 2.95694 14.8087 3.86527C13.2843 4.7736 12.8246 8.2157 14.0586 13.4267C15.9775 13.0377 17.9161 12.7505 19.866 12.5661C21.0272 10.9586 22.271 9.41082 23.5924 7.92886Z" fill="#8D99AE"/>
</svg>
