<svg width="237" height="237" viewBox="0 0 237 237" fill="none" xmlns="http://www.w3.org/2000/svg">
<path d="M118.5 138.25V158C102.786 158 87.7155 164.242 76.6039 175.354C65.4924 186.465 59.25 201.536 59.25 217.25H39.5C39.5 196.298 47.8232 176.204 62.6386 161.389C77.4539 146.573 97.5479 138.25 118.5 138.25ZM118.5 128.375C85.7644 128.375 59.25 101.861 59.25 69.125C59.25 36.3894 85.7644 9.875 118.5 9.875C151.236 9.875 177.75 36.3894 177.75 69.125C177.75 101.861 151.236 128.375 118.5 128.375ZM118.5 108.625C140.324 108.625 158 90.9488 158 69.125C158 47.3012 140.324 29.625 118.5 29.625C96.6762 29.625 79 47.3012 79 69.125C79 90.9488 96.6762 108.625 118.5 108.625ZM207.375 167.875H217.25V217.25H138.25V167.875H148.125V158C148.125 150.143 151.246 142.608 156.802 137.052C162.358 131.496 169.893 128.375 177.75 128.375C185.607 128.375 193.142 131.496 198.698 137.052C204.254 142.608 207.375 150.143 207.375 158V167.875ZM187.625 167.875V158C187.625 155.381 186.585 152.869 184.733 151.017C182.881 149.165 180.369 148.125 177.75 148.125C175.131 148.125 172.619 149.165 170.767 151.017C168.915 152.869 167.875 155.381 167.875 158V167.875H187.625Z" fill="white"/>
</svg>
