<svg width="69" height="46" viewBox="0 0 69 46" fill="none" xmlns="http://www.w3.org/2000/svg">
<path d="M63.6456 10.2149C62.992 11.5029 62.1195 12.2935 60.9786 12.6241C59.187 13.1502 57.0599 12.4746 56.062 11.8967C54.746 11.1349 53.2199 9.97913 51.6063 8.75725C46.4562 4.853 40.0484 0 31.2421 0C24.1983 0 20.5801 3.56213 14.5896 9.46738L18.6951 13.5527C20.2883 12.3309 30.4572 13.5096 34.8954 16.9855C41.4869 22.1461 46.2461 25.875 51.6676 25.875C59.4263 25.875 65.9041 20.8696 69 12.4833L63.6456 10.2149ZM46.392 32.7491C44.6033 33.2666 42.4732 32.5996 41.4753 32.0217C40.1593 31.2599 38.6332 30.1041 37.0196 28.8822C31.8666 24.978 25.4588 20.125 16.6526 20.125C9.6087 20.125 5.99048 23.6871 0 29.5924L4.10551 33.6777C5.69578 32.4501 15.8706 33.6375 20.3058 37.1105C26.8974 42.2711 31.6565 46 37.078 46C44.8367 46 51.3145 40.9946 54.4104 32.6083L49.059 30.3399C48.4024 31.6279 47.5329 32.4156 46.392 32.7491Z" fill="#8D99AE"/>
</svg>
