<svg width="162" height="188" viewBox="0 0 162 188" fill="none" xmlns="http://www.w3.org/2000/svg">
<path d="M0 0V188L18.0203 170.01V131.185H47.9767V160.829L57.0023 169.84L66.0125 160.829V131.185H95.972V160.829L104.982 169.84L113.992 160.829V131.185H143.98V170.01L162 188V0H0ZM47.9767 113.145H18.0203V74.5645H47.9767V113.145ZM47.9767 56.5556H18.0203V17.9564H47.9767V56.5556ZM95.972 113.145H66.0125V74.5645H95.972V113.145ZM95.972 56.5556H66.0125V17.9564H95.972V56.5556ZM143.98 113.145H114.008V74.5645H143.98V113.145ZM143.98 56.5556H114.008V17.9564H143.98V56.5556Z" fill="#D1D3D4"/>
</svg>
